# xmcd
#
# Track frame offsets: 
#        150
#        13405
#        31328
#        48605
#        65731
#        81002
#        95040
#        108806
#        126204
#        142746
#        160391
#        174447
#        187363
#
# Disc length: 2707 seconds
#
# Revision: 1
# Processed by: cddbd v1.5.2PL0 Copyright (c) Steve Scherf et al.
# Submitted via: ExactAudioCopyFreeDBPlugin 1.0
#
DISCID=b70a910d
DTITLE=Fettes Brot - Teenager vom Mars
DYEAR=2015
DGENRE=Hip-Hop
TTITLE0=Teenager vom Mars
TTITLE1=Klaro
TTITLE2=Mein Haus
TTITLE3=Von der Liebe
TTITLE4=Gegenmodell
TTITLE5=Du bist the Shit
TTITLE6=Alle hörn jetzt Schlager
TTITLE7=Eure Autos
TTITLE8=Boyfriend
TTITLE9=Meine Stimme
TTITLE10=Ganz schön Low
TTITLE11=Emmely
TTITLE12=Das letzte Lied auf der Welt
EXTD=
EXTT0=
EXTT1=
EXTT2=
EXTT3=
EXTT4=
EXTT5=
EXTT6=
EXTT7=
EXTT8=
EXTT9=
EXTT10=
EXTT11=
EXTT12=
PLAYORDER=
